<svg width="24" height="24" viewBox="0 0 24 24" fill="none" xmlns="http://www.w3.org/2000/svg">
<path d="M8.42773 15.9463C9.7195 15.9463 10.7673 16.9935 10.7676 18.2852C10.7676 19.5771 9.71969 20.625 8.42773 20.625C7.13616 20.6246 6.08887 19.5768 6.08887 18.2852C6.08917 16.9937 7.13635 15.9467 8.42773 15.9463ZM16.4277 15.9463C17.7195 15.9463 18.7673 16.9935 18.7676 18.2852C18.7676 19.5771 17.7197 20.625 16.4277 20.625C15.1362 20.6246 14.0889 19.5768 14.0889 18.2852C14.0892 16.9937 15.1363 15.9467 16.4277 15.9463ZM8.42773 17.1963C7.82671 17.1967 7.33917 17.6841 7.33887 18.2852C7.33887 18.8865 7.82652 19.3746 8.42773 19.375C9.02933 19.375 9.51758 18.8868 9.51758 18.2852C9.51728 17.6838 9.02914 17.1963 8.42773 17.1963ZM16.4277 17.1963C15.8267 17.1967 15.3392 17.6841 15.3389 18.2852C15.3389 18.8865 15.8265 19.3746 16.4277 19.375C17.0293 19.375 17.5176 18.8868 17.5176 18.2852C17.5173 17.6838 17.0291 17.1963 16.4277 17.1963ZM4.3125 3.83105L7.125 13.8232H17.5527L19.6621 6.92383H6.65137V5.67383H21.3516L21.1045 6.48242L18.6123 14.6309L18.4766 15.0732H6.17773L6.0498 14.6172L3.2373 4.625H1V3.375H4.18359L4.3125 3.83105Z" fill="#161412"/>
</svg>
