<svg width="20" height="20" viewBox="0 0 20 20" fill="none" xmlns="http://www.w3.org/2000/svg">
<g clip-path="url(#clip0_9_170)">
<path d="M14.5806 -0.000148773C14.6589 -0.000185013 14.7355 0.0230103 14.8006 0.066494C14.8657 0.109978 14.9165 0.171803 14.9464 0.244139C14.9764 0.316477 14.9842 0.396078 14.9689 0.472872C14.9537 0.549665 14.9159 0.620193 14.8606 0.675541L6.00693 9.52995C5.88287 9.65498 5.81325 9.82398 5.81325 10.0001C5.81325 10.1763 5.88287 10.3453 6.00693 10.4703L14.8606 19.3242C14.9348 19.3984 14.9764 19.4991 14.9764 19.6041C14.9764 19.709 14.9347 19.8097 14.8604 19.8839C14.7862 19.9581 14.6855 19.9998 14.5805 19.9998C14.4756 19.9997 14.3749 19.958 14.3007 19.8838L5.44734 11.0299C5.17481 10.7564 5.02179 10.3861 5.02179 9.99999C5.02179 9.61391 5.17481 9.24357 5.44734 8.97009L14.301 0.115683C14.3752 0.0415382 14.4757 -0.000127792 14.5806 -0.000148773Z" fill="black"/>
</g>
<defs>
<clipPath id="clip0_9_170">
<rect width="20" height="20" fill="white" transform="matrix(-1 0 0 -1 20 20)"/>
</clipPath>
</defs>
</svg>
