<svg width="20" height="20" viewBox="0 0 20 20" fill="none" xmlns="http://www.w3.org/2000/svg">
<g clip-path="url(#clip0_9_163)">
<path d="M5.41937 20.0001C5.34107 20.0002 5.26453 19.977 5.19942 19.9335C5.1343 19.89 5.08354 19.8282 5.05357 19.7559C5.0236 19.6835 5.01577 19.6039 5.03105 19.5271C5.04634 19.4503 5.08406 19.3798 5.13945 19.3245L13.9931 10.47C14.1171 10.345 14.1867 10.176 14.1867 9.99988C14.1867 9.82375 14.1171 9.65475 13.9931 9.52972L5.13945 0.675839C5.06524 0.601596 5.02356 0.500916 5.02358 0.395945C5.02361 0.290975 5.06533 0.190316 5.13957 0.116108C5.21382 0.0419005 5.3145 0.000219415 5.41947 0.000244152C5.52444 0.000268888 5.62511 0.0419943 5.69931 0.116237L14.5527 8.97013C14.8252 9.2436 14.9782 9.61393 14.9782 10C14.9782 10.3861 14.8252 10.7564 14.5527 11.0299L5.69904 19.8843C5.62485 19.9585 5.52426 20.0001 5.41937 20.0001Z" fill="#040404"/>
</g>
<defs>
<clipPath id="clip0_9_163">
<rect width="20" height="20" fill="white"/>
</clipPath>
</defs>
</svg>
