<svg width="15" height="12" viewBox="0 0 15 12" fill="none" xmlns="http://www.w3.org/2000/svg">
<path fill-rule="evenodd" clip-rule="evenodd" d="M7.01525 2.16496L6.38691 1.58458C6.01396 1.2761 5.56675 1.04911 5.08013 0.921289C4.59351 0.793465 4.08061 0.768255 3.58137 0.847622C3.08212 0.926989 2.61001 1.10879 2.20181 1.37887C1.7936 1.64895 1.46031 2.00001 1.22789 2.40473C0.769838 3.21019 0.665735 4.37363 1.50302 5.85832C2.30981 7.28824 3.98809 8.99734 7.01525 10.8674C10.0424 9.00201 11.7199 7.29025 12.5275 5.85832C13.3648 4.37296 13.2621 3.21019 12.8026 2.40473C12.5704 1.99993 12.2373 1.64874 11.8292 1.37852C11.4211 1.10831 10.9491 0.926364 10.4499 0.846863C9.95072 0.767362 9.43782 0.792452 8.95119 0.920178C8.46455 1.0479 8.01732 1.27482 7.64432 1.58324L7.01525 2.16496ZM7.01525 11.8151C-6.43034 3.83465 2.87494 -2.39397 6.86132 0.90067C6.91412 0.944082 6.96543 0.98883 7.01599 1.03425C7.06556 0.98972 7.11712 0.945195 7.17066 0.90067C11.1541 -2.3953 20.4608 3.83332 7.01525 11.8144V11.8151Z" fill="black"/>
</svg>
