<svg width="24" height="24" viewBox="0 0 24 24" fill="none" xmlns="http://www.w3.org/2000/svg">
<path d="M10.0527 3.46918C13.741 3.46919 16.7305 6.45861 16.7305 10.1469C16.7305 11.8623 16.0834 13.4262 15.0205 14.6088L19.7607 19.35L19.3193 19.7924L18.877 20.2338L14.0996 15.4575C12.9766 16.3145 11.5746 16.8246 10.0527 16.8246C6.36444 16.8246 3.37501 13.8352 3.375 10.1469C3.375 6.45861 6.36443 3.46918 10.0527 3.46918ZM10.0527 4.71918C7.05479 4.71918 4.625 7.14896 4.625 10.1469C4.62501 13.1449 7.05479 15.5746 10.0527 15.5746C13.0507 15.5746 15.4805 13.1448 15.4805 10.1469C15.4805 7.14897 13.0507 4.71919 10.0527 4.71918Z" fill="#161412"/>
</svg>
